<?xml version="1.0" standalone="no"?>
<!DOCTYPE svg PUBLIC "-//W3C//DTD SVG 20010904//EN"
 "http://www.w3.org/TR/2001/REC-SVG-20010904/DTD/svg10.dtd">
<svg version="1.0" xmlns="http://www.w3.org/2000/svg"
 width="500.000000pt" height="500.000000pt" viewBox="0 0 500.000000 500.000000"
 preserveAspectRatio="xMidYMid meet">

<g transform="translate(0.000000,500.000000) scale(0.100000,-0.100000)"
fill="#000000" stroke="none">
<path d="M885 4971 c-98 -56 -181 -176 -193 -277 -4 -38 -8 -45 -37 -54 -82
-27 -153 -126 -158 -220 l-2 -50 -43 0 c-91 0 -160 -59 -170 -146 -4 -41 -8
-47 -46 -66 -113 -57 -184 -148 -216 -277 -12 -46 -17 -87 -12 -90 5 -3 17
-21 27 -38 19 -33 35 -43 35 -23 0 6 -7 22 -16 36 -39 59 9 208 94 293 62 62
112 88 202 103 61 11 80 10 135 -4 83 -22 158 -69 206 -130 41 -52 45 -63 29
-73 -17 -11 -51 -85 -48 -103 3 -12 11 -5 26 23 12 22 28 48 35 57 38 48 176
64 253 29 132 -60 197 -207 148 -331 -9 -23 -14 -43 -11 -46 11 -12 25 7 38
52 17 57 44 76 107 76 82 0 152 -50 170 -124 10 -38 9 -39 -24 -53 -38 -16
-48 -42 -11 -30 71 22 107 12 144 -44 62 -92 -7 -231 -115 -233 -60 -1 -98 18
-117 58 -9 19 -21 34 -27 34 -13 0 -1 -50 18 -71 20 -22 17 -46 -10 -105 -41
-87 -143 -154 -235 -154 -84 0 -175 47 -187 95 -3 14 -12 25 -20 25 -17 0 -18
-14 -3 -42 17 -31 3 -62 -56 -126 -86 -93 -205 -134 -327 -112 -78 14 -128 40
-188 96 -69 64 -102 132 -105 213 -3 69 -25 102 -25 37 0 -50 0 -49 -18 -70
-21 -23 -73 -46 -107 -46 -16 0 -25 -6 -25 -15 0 -23 49 -19 102 8 l45 23 32
-62 c38 -73 106 -141 182 -181 50 -26 63 -28 164 -28 98 0 116 3 167 27 65 30
146 101 172 151 l18 33 51 -25 c40 -20 66 -25 121 -25 142 0 245 81 290 226 4
13 13 15 45 11 60 -8 108 5 148 40 66 58 81 138 41 217 -13 25 -40 56 -62 71
-29 19 -43 38 -52 68 -7 24 -20 51 -29 61 -16 17 -13 21 37 72 30 29 63 66 74
81 l20 29 41 -21 c47 -25 125 -37 177 -27 57 11 32 26 -43 26 -86 0 -159 33
-187 85 -10 19 -22 35 -26 35 -11 0 -10 -28 2 -51 15 -27 -18 -86 -79 -142
l-51 -45 -37 20 c-31 16 -52 19 -109 15 l-72 -4 -6 36 c-7 46 -40 107 -80 150
-44 47 -139 91 -198 91 -36 0 -48 4 -48 15 0 8 -4 15 -10 15 -5 0 -10 -6 -10
-13 0 -7 -17 -19 -37 -26 -35 -13 -37 -13 -57 15 -38 56 -109 117 -165 143
-46 21 -74 27 -156 29 -55 2 -103 9 -106 14 -4 6 -3 24 2 41 17 59 71 97 138
97 32 0 47 -7 77 -35 56 -53 72 -47 28 11 -37 48 -42 108 -15 170 27 60 44 79
100 112 42 25 45 25 55 8 22 -37 44 -61 51 -54 4 3 -1 18 -11 32 -13 21 -16
41 -12 91 7 82 38 146 105 213 58 59 121 91 197 102 l51 8 -70 1 c-60 1 -77
-3 -120 -28z"/>
<path d="M1141 4990 c96 -16 180 -70 241 -154 28 -39 28 -39 9 -60 -26 -28
-53 -93 -42 -100 5 -4 23 18 39 48 36 63 81 86 170 86 139 0 257 -110 271
-253 l6 -58 35 37 c23 24 28 33 14 26 -20 -10 -22 -7 -33 42 -21 95 -105 187
-201 221 -51 18 -115 19 -177 3 -41 -10 -47 -9 -56 7 -22 40 -94 109 -142 136
-42 24 -60 29 -115 28 l-65 -1 46 -8z"/>
<path d="M3164 4964 c-8 -20 -20 -60 -26 -89 -8 -42 -15 -55 -32 -59 -40 -10
-104 -64 -131 -111 -18 -30 -29 -66 -32 -106 -6 -61 -6 -61 -34 -55 -21 4 -29
2 -29 -8 0 -7 14 -16 31 -20 17 -3 46 -22 63 -41 50 -55 66 -40 21 19 -50 66
-24 192 52 255 40 33 85 49 91 31 2 -6 15 -23 28 -38 27 -31 32 -13 9 28 -25
43 -16 109 30 213 5 12 3 17 -9 17 -10 0 -23 -15 -32 -36z"/>
<path d="M3277 4968 c-36 -48 -59 -97 -54 -116 2 -11 9 -4 21 22 9 22 27 54
40 70 33 45 38 56 27 56 -5 0 -21 -15 -34 -32z"/>
<path d="M3845 4979 c3 -9 1 -20 -5 -24 -12 -7 -50 -79 -50 -95 0 -24 20 -7
40 35 30 61 81 88 170 88 36 0 81 -7 102 -16 51 -22 127 -94 149 -142 23 -49
25 -142 4 -191 -15 -36 -12 -60 6 -49 5 3 16 30 24 59 15 51 18 54 60 65 60
15 72 14 123 -10 45 -22 86 -73 97 -121 6 -24 3 -29 -29 -42 -20 -8 -36 -20
-36 -25 0 -14 27 -14 35 -1 14 22 74 10 110 -21 39 -35 54 -76 45 -129 -5 -34
-7 -35 -58 -41 -29 -4 -80 -20 -112 -37 -64 -32 -70 -31 -90 22 -8 21 -14 26
-22 18 -8 -8 -5 -22 10 -52 l21 -42 -32 -34 c-22 -25 -33 -31 -38 -22 -11 17
-21 4 -23 -29 -1 -15 -8 -47 -15 -70 -18 -54 -65 -77 -157 -76 -84 1 -149 32
-177 86 -13 25 -23 35 -29 29 -7 -7 -5 -21 5 -41 14 -29 14 -32 -12 -73 -36
-56 -95 -108 -156 -139 -43 -21 -64 -24 -155 -24 -96 0 -110 3 -158 28 -75 40
-124 87 -162 159 -28 52 -34 74 -34 125 0 45 -3 63 -13 63 -9 0 -13 -14 -13
-44 0 -40 -4 -48 -37 -73 -31 -24 -46 -28 -98 -28 -50 0 -69 5 -103 28 -48 31
-52 32 -52 12 0 -8 21 -27 47 -42 61 -35 138 -38 200 -7 l43 21 27 -56 c37
-74 113 -150 188 -187 55 -26 69 -29 165 -29 92 0 112 3 160 26 65 31 148 103
174 152 l19 34 55 -24 c48 -22 64 -25 136 -21 44 3 89 9 100 13 14 6 17 4 15
-10 -2 -10 -24 -29 -49 -42 -87 -44 -150 -144 -150 -235 0 -27 -2 -28 -49 -28
-56 0 -103 -27 -139 -80 -20 -29 -23 -45 -20 -95 6 -95 63 -155 153 -158 41
-2 44 -4 55 -40 13 -44 69 -103 116 -123 50 -21 123 -18 174 9 l44 22 34 -67
c38 -78 101 -138 182 -177 44 -21 74 -27 147 -29 102 -4 193 17 193 45 0 10
-5 13 -17 8 -146 -60 -302 -34 -407 69 -72 70 -98 123 -104 214 -6 96 -25 95
-34 -2 -4 -43 -46 -69 -117 -74 -73 -5 -122 16 -162 71 -33 46 -36 77 -12 118
25 41 9 47 -27 9 -28 -30 -34 -32 -73 -26 -58 10 -86 30 -109 83 -25 58 -18
103 25 149 55 60 127 63 183 8 45 -46 61 -34 24 18 -48 66 -38 152 27 227 30
35 84 71 107 71 2 0 13 -16 25 -36 27 -45 45 -36 21 11 -50 98 48 293 181 360
137 70 300 48 414 -57 45 -41 55 -46 55 -30 0 47 -142 138 -231 149 l-49 6 0
49 c0 27 -6 63 -14 81 -13 32 -78 97 -96 97 -5 0 -14 17 -19 38 -26 93 -98
154 -185 156 -28 0 -63 -3 -77 -7 -25 -6 -27 -4 -33 34 -13 84 -77 169 -157
209 -35 18 -56 21 -170 19 -119 -2 -129 -3 -124 -20z"/>
<path d="M1100 4931 c0 -11 49 -21 55 -11 5 9 -18 20 -41 20 -8 0 -14 -4 -14
-9z"/>
<path d="M964 4904 c-67 -35 -140 -109 -169 -171 -28 -58 -29 -63 -16 -63 5 0
13 10 16 23 24 78 144 196 215 212 16 4 32 11 35 16 12 18 -33 9 -81 -17z"/>
<path d="M2955 4269 c-9 -29 2 -36 20 -13 18 24 19 34 1 34 -8 0 -18 -9 -21
-21z"/>
<path d="M4720 4230 c0 -5 12 -10 26 -10 14 0 23 4 19 10 -3 6 -15 10 -26 10
-10 0 -19 -4 -19 -10z"/>
<path d="M4564 4195 c-84 -50 -143 -121 -168 -202 -13 -42 11 -23 28 22 26 66
97 139 172 176 35 17 64 33 64 35 0 14 -45 -1 -96 -31z"/>
<path d="M2310 4112 c-189 -19 -420 -80 -420 -111 0 -49 111 -181 154 -181 10
0 2 114 -9 144 -7 15 -4 17 11 13 44 -13 243 -29 270 -23 l29 8 -44 23 -45 22
98 -5 c68 -3 100 -1 105 7 7 11 20 13 184 26 l87 7 0 -69 c0 -46 9 -99 25
-154 14 -46 33 -115 41 -154 22 -96 34 -104 33 -20 0 47 -3 63 -9 50 -6 -16
-9 -17 -13 -5 -41 116 -36 300 8 300 11 0 15 -13 16 -52 l2 -53 7 45 c4 25 10
66 14 91 6 37 4 49 -10 63 -9 10 -25 15 -36 13 -10 -3 -16 -2 -14 1 2 4 -17 8
-42 8 -266 7 -413 9 -442 6z"/>
<path d="M425 4100 c3 -5 17 -10 31 -10 14 0 22 4 19 10 -3 6 -17 10 -31 10
-14 0 -22 -4 -19 -10z"/>
<path d="M4282 4089 c-34 -27 -91 -40 -132 -29 -19 5 -46 12 -60 15 -24 6 -24
6 -5 -9 38 -32 95 -40 151 -22 50 16 93 49 77 59 -4 3 -19 -3 -31 -14z"/>
<path d="M283 4075 c-83 -42 -191 -174 -181 -223 2 -10 14 5 29 38 34 74 102
140 180 178 36 18 55 32 43 32 -11 0 -43 -11 -71 -25z"/>
<path d="M4977 4025 c-12 -26 -15 -41 -8 -48 12 -12 33 36 29 66 -2 16 -7 12
-21 -18z"/>
<path d="M2441 3968 c-43 -23 -20 -33 69 -29 47 1 87 5 89 7 3 2 -1 10 -7 16
-17 17 -122 21 -151 6z"/>
<path d="M2093 3916 c-35 -30 -23 -46 16 -23 16 9 43 17 60 17 33 0 42 14 15
24 -31 12 -63 6 -91 -18z"/>
<path d="M2823 3810 c0 -41 2 -58 4 -37 2 20 2 54 0 75 -2 20 -4 3 -4 -38z"/>
<path d="M1920 3838 c0 -7 7 -33 14 -58 l15 -45 0 35 c0 19 -2 45 -5 58 -7 23
-24 31 -24 10z"/>
<path d="M2522 3708 c2 -25 8 -34 25 -36 17 -3 24 3 29 22 8 33 -1 46 -32 46
-22 0 -25 -4 -22 -32z"/>
<path d="M1951 3724 c-2 -24 39 -206 50 -222 8 -13 9 -8 5 23 -6 44 -54 217
-55 199z"/>
<path d="M2116 3704 c-8 -22 12 -56 32 -52 11 2 18 15 20 36 3 28 0 32 -21 32
-14 0 -28 -7 -31 -16z"/>
<path d="M2151 3384 c0 -11 3 -14 6 -6 3 7 2 16 -1 19 -3 4 -6 -2 -5 -13z"/>
<path d="M2175 3350 c3 -5 8 -10 11 -10 2 0 4 5 4 10 0 6 -5 10 -11 10 -5 0
-7 -4 -4 -10z"/>
<path d="M2175 3307 c-5 -18 -12 -26 -21 -23 -8 3 -14 1 -14 -4 0 -6 -11 -10
-25 -10 -16 0 -25 6 -25 15 0 8 -4 15 -10 15 -13 0 -13 -56 0 -81 6 -10 17
-19 25 -19 7 0 15 -5 17 -11 2 -6 17 -12 33 -14 17 -1 38 -6 48 -10 24 -10 99
20 115 46 20 31 0 51 -39 37 -16 -5 -27 -14 -24 -18 3 -4 -2 -10 -10 -14 -8
-3 -17 -1 -20 4 -8 14 -69 12 -82 -1 -14 -14 -29 -5 -36 21 -4 15 0 20 14 20
10 0 19 -4 19 -10 0 -17 26 -11 44 9 14 16 16 26 8 48 l-10 28 -7 -28z"/>
<path d="M2533 3250 c4 -14 -7 -36 -32 -68 -52 -65 -75 -83 -134 -109 -55 -24
-53 -31 4 -12 48 17 117 75 150 128 30 46 37 81 18 81 -6 0 -9 -9 -6 -20z"/>
<path d="M1227 3158 c-4 -12 -4 -24 -1 -27 6 -7 24 20 24 37 0 21 -17 13 -23
-10z"/>
<path d="M1150 3080 c-36 -28 -97 -34 -150 -16 -45 15 -67 13 -40 -5 21 -13
81 -29 110 -29 31 0 112 40 118 58 5 17 -9 15 -38 -8z"/>
<path d="M2570 2632 c-49 -16 -55 -21 -58 -47 -6 -63 -45 -232 -68 -293 -28
-75 -142 -254 -158 -249 -17 6 -54 134 -61 215 -8 82 7 208 31 253 8 17 14 33
12 35 -2 2 -28 -4 -57 -14 -41 -13 -60 -25 -77 -52 -36 -55 -56 -159 -58 -305
-1 -145 -6 -159 -85 -264 -22 -30 -61 -96 -87 -147 -43 -88 -45 -94 -29 -110
16 -16 24 -16 138 9 157 35 306 57 384 57 105 0 266 20 301 38 24 11 38 13 50
6 9 -6 39 -8 66 -6 l49 4 -6 147 c-5 153 -29 274 -64 327 -30 46 -64 155 -73
239 -16 131 -20 157 -26 166 -8 14 -63 10 -124 -9z"/>
<path d="M1718 1778 c-116 -90 -118 -93 -101 -118 l16 -22 24 31 c13 17 29 31
34 31 13 0 58 -102 52 -117 -4 -10 -67 -13 -270 -13 -286 0 -300 -2 -342 -56
-19 -25 -21 -39 -21 -199 0 -160 2 -174 21 -199 44 -56 44 -56 473 -56 252 0
397 -4 401 -10 4 -6 -36 -10 -112 -10 -65 0 -135 -5 -155 -10 -41 -12 -98 -70
-98 -101 0 -30 22 -18 45 24 17 31 25 37 52 37 27 0 32 -4 35 -27 3 -24 8 -28
41 -31 36 -3 37 -4 37 -43 0 -39 0 -39 -40 -39 l-40 0 0 -62 c0 -78 8 -91 50
-86 31 3 33 1 34 -30 1 -39 -6 -47 -53 -56 -44 -8 -108 10 -121 34 -5 10 -10
59 -10 109 0 84 -1 91 -20 91 -17 0 -20 7 -20 46 0 57 -23 97 -67 118 -29 14
-90 16 -483 16 -246 0 -456 -3 -464 -6 -13 -5 -14 -10 -5 -20 8 -10 7 -22 -2
-49 -12 -33 -15 -35 -46 -29 l-33 6 0 -111 c0 -120 1 -122 54 -101 25 9 26 9
26 -35 0 -47 -16 -65 -60 -65 -20 0 -20 -1 -5 -30 9 -17 30 -40 48 -50 l32
-20 -105 0 c-97 1 -103 2 -74 14 32 14 64 51 64 73 0 9 -15 13 -44 13 -48 0
-96 27 -130 73 -29 39 -35 160 -11 223 16 42 68 94 93 94 7 0 12 5 12 10 0 6
-78 10 -215 10 l-215 0 0 -255 0 -255 63 -1 c53 -1 58 -2 32 -10 -35 -11 -68
-36 -84 -66 -7 -14 -11 -80 -11 -180 0 -139 2 -162 20 -190 42 -69 24 -67 529
-71 444 -3 457 -3 488 17 18 11 41 37 51 57 18 36 19 36 25 13 4 -14 20 -38
37 -54 l31 -30 447 -3 c246 -2 461 0 477 3 17 3 42 16 55 29 l25 24 28 -27 28
-26 452 -3 c297 -2 464 1 488 7 23 7 45 24 60 46 13 19 26 35 29 35 3 0 14
-14 23 -30 37 -62 31 -61 541 -58 l464 3 27 25 c15 14 34 39 41 55 8 18 13 23
14 13 0 -33 58 -86 101 -93 23 -4 148 -4 280 0 l239 8 0 253 0 254 -97 0 -98
0 31 19 c38 23 64 58 64 86 0 13 7 6 19 -21 17 -37 53 -74 73 -74 5 0 8 110 8
245 0 171 -3 245 -11 245 -15 0 -66 -56 -74 -81 -6 -18 -9 -17 -23 13 -10 18
-32 43 -51 55 l-34 23 -457 0 -457 0 -34 -23 c-19 -12 -40 -36 -48 -52 -8 -17
-36 -56 -63 -88 -26 -32 -48 -63 -48 -68 0 -5 25 -47 55 -94 l55 -85 -63 0
-62 0 -34 56 c-32 53 -34 55 -52 38 -12 -11 -19 -30 -19 -56 l0 -38 -56 0 -55
0 2 208 2 207 -314 3 c-316 3 -396 -1 -368 -18 12 -8 6 -42 -38 -212 -57 -226
-57 -228 10 -268 l32 -20 -105 0 c-104 0 -105 1 -72 17 28 13 62 57 62 78 0 3
-22 5 -50 5 -57 0 -48 -15 -85 155 l-22 100 -12 -55 c-6 -30 -19 -88 -28 -128
l-17 -73 -65 3 -65 3 -41 166 c-23 92 -45 181 -48 198 l-7 32 53 -3 52 -3 31
-140 c22 -96 33 -132 37 -115 3 14 18 78 32 143 l27 117 49 0 c59 0 56 6 90
-162 13 -64 25 -116 27 -114 5 6 40 157 47 209 4 26 13 53 19 60 7 7 15 20 19
30 6 15 26 17 232 17 255 0 264 2 295 73 l18 39 17 -36 c10 -20 29 -45 43 -56
24 -19 42 -20 484 -20 502 0 495 -1 537 59 19 27 21 43 21 199 0 157 -2 171
-21 196 -45 57 -39 56 -531 56 -436 0 -454 -1 -486 -20 -19 -12 -41 -38 -52
-63 -14 -32 -19 -37 -19 -19 -1 12 -16 39 -35 60 l-34 37 -476 0 -475 0 -29
-28 c-22 -21 -31 -25 -35 -14 -13 35 -71 47 -221 47 -139 0 -146 1 -146 20 0
14 -7 20 -21 20 -15 0 -26 14 -45 55 -13 31 -24 59 -24 64 0 4 18 16 40 26 40
18 52 35 25 35 -9 0 -12 6 -9 15 9 23 1 19 -58 -27z m802 -728 c0 -6 -44 -10
-112 -10 -77 0 -108 3 -98 10 20 13 210 13 210 0z m-1625 -121 c4 -6 4 -30 1
-54 -7 -41 -8 -43 -42 -43 -57 0 -64 -13 -64 -118 l0 -94 -55 0 -55 0 0 155 0
155 41 0 c32 0 42 -4 46 -20 6 -24 16 -25 34 -4 24 30 82 44 94 23z m652 -24
c47 -53 54 -171 15 -238 -10 -19 -33 -37 -55 -45 -33 -13 -40 -13 -75 5 l-39
19 2 -66 c0 -36 -1 -71 -3 -77 -5 -16 -99 -18 -104 -3 -1 5 -2 104 0 220 l3
210 43 0 c35 0 45 -4 54 -22 6 -13 11 -17 11 -10 1 19 62 43 96 37 17 -3 40
-16 52 -30z m555 25 c74 -21 121 -115 99 -198 -23 -88 -104 -135 -190 -112
-83 22 -116 77 -109 181 3 48 10 65 33 89 43 45 99 58 167 40z m966 -10 c74
-34 103 -138 63 -227 -24 -52 -67 -76 -137 -76 -98 0 -154 59 -154 161 0 61
18 102 57 130 51 36 109 40 171 12z m360 -32 l-3 -52 -40 -3 c-56 -3 -65 -21
-65 -125 l0 -88 -55 0 -55 0 0 155 0 155 41 0 c32 0 42 -4 46 -20 7 -25 5 -25
49 5 20 14 48 25 61 25 23 0 24 -3 21 -52z m648 27 c36 -23 52 -55 56 -110 l3
-50 -90 -3 c-49 -2 -93 -6 -97 -10 -5 -5 -2 -17 6 -27 15 -21 75 -26 131 -12
29 7 30 6 29 -23 -1 -16 -2 -34 -3 -39 0 -5 -26 -15 -57 -21 -141 -29 -237 53
-217 185 9 59 33 95 78 117 46 22 122 19 161 -7z m335 20 c3 -2 3 -26 -1 -52
-3 -33 -10 -48 -20 -49 -8 -1 -27 -2 -41 -3 -36 -1 -49 -36 -49 -131 l0 -80
-55 0 -55 0 0 155 0 155 44 0 c39 0 45 -3 51 -27 4 -16 10 -22 12 -15 11 30
97 65 114 47z m261 -14 c27 -10 27 -11 13 -43 -8 -18 -20 -31 -27 -29 -7 2
-32 6 -55 8 -59 8 -55 -11 7 -38 61 -26 90 -60 90 -105 0 -68 -73 -110 -171
-98 -62 8 -71 15 -73 58 -2 40 5 43 67 25 37 -10 77 -5 77 10 0 4 -27 20 -61
36 -67 32 -81 50 -81 102 0 40 23 70 66 83 35 11 108 6 148 -9z m-3624 -83
c14 -49 28 -88 32 -88 3 0 19 41 33 90 l27 90 56 0 c50 0 55 -2 49 -17 -4 -10
-34 -90 -66 -178 -33 -88 -69 -172 -80 -187 l-20 -28 73 -1 c40 -1 63 -4 50
-6 -33 -7 -92 -66 -92 -94 0 -19 -5 -14 -23 22 l-22 45 -60 3 c-33 1 -62 4
-63 6 -2 2 -5 20 -6 39 -1 32 1 35 28 38 17 2 37 13 47 28 18 25 18 26 -36
160 -78 190 -77 172 -9 168 l57 -3 25 -87z m611 -257 c7 -12 27 -31 44 -41
l32 -20 -100 0 -100 0 30 19 c37 22 65 62 66 93 1 22 1 22 8 -3 5 -14 14 -35
20 -48z m2162 2 c8 -14 28 -35 44 -45 l30 -18 -95 0 -95 0 32 23 c18 12 38 32
44 45 16 29 23 28 40 -5z m-1556 -70 c-11 -3 -34 -16 -51 -29 -31 -23 -32 -23
-49 -3 -10 10 -32 23 -49 28 -23 7 -6 9 69 9 55 0 91 -3 80 -5z m1079 -12
c-27 -12 -46 -30 -55 -50 -13 -30 -29 -41 -29 -22 0 20 -53 71 -83 80 -24 7
-2 9 88 10 l120 1 -41 -19z m1131 12 c-37 -10 -68 -37 -86 -78 -13 -29 -19
-34 -19 -18 0 31 -46 81 -83 92 -24 7 -1 9 88 9 66 0 111 -3 100 -5z"/>
<path d="M1412 841 c-18 -11 -18 -107 -1 -127 22 -27 53 -13 63 28 18 71 -18
128 -62 99z"/>
<path d="M2033 849 c-20 -7 -23 -15 -23 -66 0 -71 9 -86 46 -81 22 2 30 10 37
37 18 73 -12 129 -60 110z"/>
<path d="M2966 838 c-23 -32 -21 -103 4 -128 35 -35 70 -2 70 67 0 41 -23 83
-45 83 -8 0 -21 -10 -29 -22z"/>
<path d="M3963 854 c-7 -3 -13 -13 -13 -23 0 -13 9 -17 40 -16 35 0 40 3 38
20 -3 20 -38 30 -65 19z"/>
<path d="M71 1553 c-63 -31 -71 -58 -71 -233 0 -131 3 -161 18 -190 37 -70 35
-70 532 -70 404 0 448 2 479 18 61 30 71 66 71 240 0 171 -7 199 -63 232 -30
19 -53 20 -482 20 -399 0 -454 -2 -484 -17z"/>
<path d="M4453 1555 c-63 -27 -73 -60 -73 -240 0 -143 2 -164 20 -193 35 -58
60 -62 345 -62 l255 0 0 255 0 255 -257 0 c-199 -1 -265 -4 -290 -15z"/>
<path d="M3580 919 c1 -97 3 -120 12 -104 6 11 29 41 51 68 38 45 41 47 93 47
59 0 66 9 38 48 -23 33 -66 51 -134 59 l-60 6 0 -124z"/>
<path d="M454 917 c-24 -21 -28 -33 -32 -90 -4 -63 -3 -68 26 -97 17 -16 40
-30 52 -30 20 0 21 4 18 117 -3 132 -12 145 -64 100z"/>
</g>
</svg>
